PathFileType	4	(X/Y/Z)	C:\Users\Basilio\Documents\Thesis Gigler\squatting_fais\c3dfiles\058\SLS_back_pre1\markers_experimental.trc
DataRate	CameraRate	NumFrames	NumMarkers	Units	OrigDataRate	OrigDataStartFrame	OrigNumFrames
200.000000	200.000000	4	60	mm	200.000000	151	1215
Frame#	Time	FHD			LBHD			RBHD			C7			T10			CLAV			LSHO			LUUPA			LMUPA			LDUPA			LLEP			LMEP			LUL			LRFIN			RSHO			RUPA1			RMUPA			RDUPA			RLEP			RMEP			RRAD			RUL			RUFIN			LASI			RASI			USACR			LSACR			RSACR			LTHI1			LTHI2			LTHI3			LTHI4			LLFC			LMFC			LTIB1			LTIB2			LTIB3			LTIB4			LLMAL			LMMAL			LHEE			LMT1			LMT5			RTHI			RTHI2			RTHI3			RTHI4			RLFC			RMFC			RTIB1			RTIB2			RTIB3			RTIB4			RLMAL			RMMAL			RHEE			RMT1			RMT2			RMT5			LMT2			
		X1	Y1	Z1	X2	Y2	Z2	X3	Y3	Z3	X4	Y4	Z4	X5	Y5	Z5	X6	Y6	Z6	X7	Y7	Z7	X8	Y8	Z8	X9	Y9	Z9	X10	Y10	Z10	X11	Y11	Z11	X12	Y12	Z12	X13	Y13	Z13	X14	Y14	Z14	X15	Y15	Z15	X16	Y16	Z16	X17	Y17	Z17	X18	Y18	Z18	X19	Y19	Z19	X20	Y20	Z20	X21	Y21	Z21	X22	Y22	Z22	X23	Y23	Z23	X24	Y24	Z24	X25	Y25	Z25	X26	Y26	Z26	X27	Y27	Z27	X28	Y28	Z28	X29	Y29	Z29	X30	Y30	Z30	X31	Y31	Z31	X32	Y32	Z32	X33	Y33	Z33	X34	Y34	Z34	X35	Y35	Z35	X36	Y36	Z36	X37	Y37	Z37	X38	Y38	Z38	X39	Y39	Z39	X40	Y40	Z40	X41	Y41	Z41	X42	Y42	Z42	X43	Y43	Z43	X44	Y44	Z44	X45	Y45	Z45	X46	Y46	Z46	X47	Y47	Z47	X48	Y48	Z48	X49	Y49	Z49	X50	Y50	Z50	X51	Y51	Z51	X52	Y52	Z52	X53	Y53	Z53	X54	Y54	Z54	X55	Y55	Z55	X56	Y56	Z56	X57	Y57	Z57	X58	Y58	Z58	X59	Y59	Z59	X60	Y60	Z60	

152	0.755	-246.3625793457032	1804.19189453125	-622.7917480468751	-403.279022216797	1762.1904296875	-701.8216552734376	-229.8744659423829	1811.20654296875	-765.4588623046876	-416.5855102539064	1594.21533203125	-718.3844604492189	-418.017303466797	1289.9609375	-707.4876708984376	-260.7095642089844	1551.700927734375	-698.5794067382814	-268.3282470703126	1604.129028320313	-851.7215576171877	-104.9258651733399	1526.327026367188	-942.632507324219	-81.93525695800783	1565.19482421875	-919.297058105469	-36.46194458007813	1526.203002929688	-928.4580078125002	36.09856796264649	1531.029296875	-905.7468261718752	36.2480583190918	1478.9228515625	-867.5894775390627	302.1095886230469	1559.231811523438	-863.3543701171877	394.1692810058595	1561.424194335938	-779.067077636719	-291.1682739257813	1605.141845703125	-547.7285156250001	-128.1358184814453	1519.36669921875	-449.9972229003907	-106.9133682250977	1557.776733398438	-474.4678649902345	-59.37756347656251	1528.676147460938	-455.1925354003907	7.997427463531496	1520.945434570313	-468.0939941406251	12.14165782928467	1461.76318359375	-519.5372314453126	268.8612670898438	1554.944091796875	-575.4979248046876	275.3423461914063	1566.08935546875	-496.1165161132814	361.3515625000001	1586.693115234375	-569.2340087890626	-246.7413024902344	1089.846923828125	-845.9509277343752	-240.1620635986329	1074.824584960938	-602.9378051757814	-433.4066162109376	1173.915893554688	-703.5859375000001	-440.2453002929689	1144.362182617188	-733.8244018554689	-436.6058349609376	1139.679443359375	-675.7994995117189	-292.1698303222657	817.876403808594	-943.0193481445315	-261.4032897949219	738.5265502929689	-946.1781005859377	-216.9792022705079	735.9498291015626	-924.0098266601565	-289.2237854003907	685.6372680664064	-951.7276000976565	-309.2646179199219	606.8703613281251	-948.2221679687502	-290.7879638671876	569.5269165039064	-821.110534667969	-415.7467651367189	522.3590698242189	-922.2792968750002	-455.3930053710939	586.9561767578126	-957.9582519531252	-458.4562072753907	544.4295654296876	-951.9797973632815	-538.2714843750001	528.1656494140626	-926.774353027344	-729.6746826171876	588.2211303710939	-909.8286132812502	-720.3302612304689	520.4846801757814	-840.1677856445315	-719.4490966796876	620.4651489257814	-830.3250122070315	-851.799987792969	449.6514587402345	-885.5642700195315	-853.9058837890627	530.2534790039064	-956.0689086914065	-355.1458129882813	866.0643310546877	-550.5829467773439	-320.9756469726563	809.6529541015627	-553.3233642578126	-287.8178405761719	808.6503906250002	-554.3760375976564	-350.9447326660157	734.2182617187501	-577.0850219726564	-348.6480407714844	553.7522583007814	-609.8671875000001	-315.0050964355469	553.0283203125001	-743.5075073242189	-300.9846191406251	356.2781066894532	-714.1914062500001	-340.1534729003907	272.6286315917969	-657.4243774414064	-304.1262817382813	268.9054565429688	-688.8785400390626	-313.5629882812501	228.7188110351563	-729.1069335937501	-375.3898925781251	118.0782089233399	-698.0269165039064	-343.5632629394532	145.9363250732422	-783.191589355469	-440.1593627929689	102.5347595214844	-763.2940063476564	-228.7834472656251	61.67721557617189	-775.0534667968752	-225.5991668701172	57.35164642333986	-722.7563476562501	-274.9776916503907	26.12381172180176	-672.6690673828126	-853.3793945312502	463.7121582031251	-931.1011352539065	
153	0.76	-245.9999084472657	1804.438232421875	-622.8270263671876	-403.2291870117189	1762.207397460938	-701.7718505859376	-229.8341674804688	1811.190551757813	-765.4375610351564	-416.4722290039064	1594.238647460938	-718.3633422851564	-417.9536132812501	1289.934448242188	-707.4410400390626	-260.6606140136719	1551.767700195313	-698.5314941406251	-268.3526916503907	1604.214111328125	-851.7371215820315	-104.9219665527344	1526.38232421875	-942.6104736328127	-81.93748474121095	1565.276000976563	-919.308044433594	-36.4001693725586	1526.255126953125	-928.4300537109377	36.04359817504884	1531.104736328125	-905.7568969726565	36.25453186035157	1478.914672851563	-867.577575683594	302.1649475097657	1559.27197265625	-863.3057250976565	394.1675415039064	1561.590209960938	-778.9801025390627	-290.9866027832032	1605.248291015625	-547.6508178710939	-128.0981903076172	1519.411254882813	-449.9494018554689	-106.9196395874024	1557.755249023438	-474.5100097656251	-59.33314514160158	1528.717529296875	-455.2066650390626	8.113632202148439	1520.86474609375	-468.122528076172	12.23295116424561	1461.774047851563	-519.5325927734376	268.9987487792969	1554.939208984375	-575.5322875976564	275.3526611328126	1566.055541992188	-496.1704711914064	361.7142028808594	1586.738037109375	-569.3181762695314	-246.6326446533204	1089.896484375	-845.8806762695315	-240.2362976074219	1074.8505859375	-602.8879394531251	-433.3524475097657	1173.98291015625	-703.5546875000001	-440.1978759765626	1144.385131835938	-733.8180541992189	-436.6080322265626	1139.696044921875	-675.8063964843751	-292.1341857910157	817.892761230469	-943.0395507812502	-261.4018554687501	738.5555419921876	-946.102233886719	-216.9318847656251	735.9876708984376	-923.9683837890627	-289.1373596191407	685.6444702148439	-951.7084960937502	-309.1844482421876	606.9372558593751	-948.1896972656252	-290.7258605957032	569.5957031250001	-821.0571289062502	-415.3283996582032	522.3820800781251	-922.5171508789065	-455.3688354492189	586.8381347656251	-957.9542236328127	-458.3927001953126	544.3330688476564	-951.9758300781252	-538.1739501953126	528.0326538085939	-926.7588500976565	-729.7963256835939	587.8143920898439	-909.8138427734377	-720.7022094726564	520.6176757812501	-839.6766357421877	-719.5390625000001	620.1427001953126	-830.327819824219	-851.619079589844	449.158905029297	-885.703308105469	-853.8765258789065	529.8578491210939	-955.9051513671877	-355.1898498535157	866.019470214844	-550.5944824218751	-320.9704895019532	809.6406860351565	-553.3221435546876	-287.9443969726563	808.5917968750002	-554.2893676757814	-351.0105895996094	734.0751342773439	-577.0615844726564	-348.6006469726563	553.7678222656251	-609.8568115234376	-314.8650817871094	552.9942016601564	-743.4204101562501	-300.9548645019532	356.2701721191407	-714.1439819335939	-340.1853027343751	272.5451965332032	-657.3475341796876	-304.0808105468751	268.8852233886719	-688.8114624023439	-313.6120300292969	228.6650085449219	-729.0479736328126	-375.4044494628907	118.0392990112305	-697.9980468750001	-343.5945129394532	145.9121398925782	-783.1685180664065	-440.1627197265626	102.5609588623047	-763.2918701171876	-228.8157348632813	61.74460983276369	-775.0290527343752	-225.5393218994141	57.30641555786134	-722.7599487304689	-274.9701538085938	26.08894729614259	-672.6986083984376	-853.174011230469	463.3294677734376	-931.1180419921877	
154	0.765	-246.0501251220704	1804.277099609375	-622.7205810546876	-403.1342773437501	1762.244262695313	-701.7335205078126	-229.6553649902344	1811.2109375	-765.4227905273439	-416.4772949218751	1594.22607421875	-718.3074951171876	-417.9727783203126	1289.948486328125	-707.3211669921876	-260.5719604492188	1551.814575195313	-698.5715332031251	-268.2902832031251	1604.232666015625	-851.7148437500002	-104.8749237060547	1526.454467773438	-942.5523071289065	-81.91690826416017	1565.349243164063	-919.2273559570315	-36.37589645385743	1526.341186523438	-928.378356933594	36.09466934204102	1531.18310546875	-905.6875610351565	36.24641799926759	1478.964965820313	-867.5217285156252	302.1428833007813	1559.350708007813	-863.163024902344	394.3404541015626	1561.734375	-778.8923950195315	-290.8861999511719	1605.224609375	-547.6386108398439	-128.0386199951172	1519.476928710938	-449.9801635742189	-106.7310028076172	1557.6796875	-474.5479431152345	-59.19070053100587	1528.743896484375	-455.1960754394532	8.275347709655763	1520.939453125	-468.1519165039064	12.30499172210694	1461.76220703125	-519.5001831054689	268.9761352539063	1554.993286132813	-575.5125122070314	275.4955749511719	1566.142822265625	-496.1881713867189	361.7666625976563	1586.7353515625	-569.3794555664064	-246.7080688476563	1089.904418945313	-845.8110351562502	-240.2476654052735	1074.88134765625	-602.8541870117189	-433.3912963867189	1173.955078125	-703.4876098632814	-440.2317504882814	1144.440185546875	-733.7625732421876	-436.6157226562501	1139.734985351563	-675.8006591796876	-292.1192932128907	817.9761962890627	-943.027770996094	-261.3063659667969	738.6121215820314	-946.0601196289065	-216.8237915039063	736.0529174804689	-923.926696777344	-289.1225891113282	685.6921997070314	-951.6838378906252	-309.1591796875001	606.9294433593751	-948.1763916015627	-290.6071166992188	569.6044921875001	-821.0711059570315	-415.5164794921876	522.1996459960939	-922.2746582031252	-455.3397216796876	586.7522583007814	-957.8916015625002	-458.3216552734376	544.2265014648439	-951.8894042968752	-538.0332031250001	527.8235473632814	-926.635681152344	-729.6740722656251	587.5645141601564	-909.7572021484377	-720.4506225585939	520.0167846679689	-839.657897949219	-719.5810546875001	619.7502441406251	-830.198181152344	-851.5899047851565	448.6919860839845	-885.642517089844	-853.765075683594	529.2911987304689	-955.9168701171877	-355.1641540527344	866.0122680664065	-550.5700073242189	-320.8955688476563	809.6247558593752	-553.3463745117189	-287.7781677246094	808.6147460937502	-554.2924194335939	-350.9345092773438	734.0661621093751	-577.0251464843751	-348.5999755859376	553.6476440429689	-609.7915649414064	-314.7807312011719	553.0192260742189	-743.3676757812501	-300.7774963378907	356.3150939941407	-714.1588745117189	-340.1764831542969	272.5328979492188	-657.3490600585939	-304.0698852539063	268.8769226074219	-688.8377075195314	-313.4092102050782	228.7581481933594	-729.0577392578126	-375.3324890136719	118.0765686035157	-698.0287475585939	-343.6017761230469	145.9509429931641	-783.1794433593752	-440.1752014160157	102.5186386108399	-763.3422241210939	-228.8024291992188	61.62340545654298	-775.0639648437502	-225.5557556152344	57.26048660278322	-722.7610473632814	-274.9559326171876	26.09091567993165	-672.6746215820314	-852.486511230469	463.1615600585939	-931.4058227539065	
155	0.77	-245.7763366699219	1804.377197265625	-622.7639770507814	-403.0675048828126	1762.30126953125	-701.6986694335939	-229.5968627929688	1811.179565429688	-765.3851318359376	-416.3567199707032	1594.257080078125	-718.2879638671876	-417.924774169922	1289.963012695313	-707.2574462890626	-260.4936828613282	1551.848510742188	-698.5094604492189	-268.3211975097657	1604.2705078125	-851.7153930664065	-104.9352264404297	1526.51806640625	-942.5473632812502	-81.92385101318361	1565.407470703125	-919.2229614257815	-36.35472488403321	1526.374633789063	-928.374450683594	36.10055923461915	1531.241577148438	-905.6905517578127	36.24056243896485	1479.023071289063	-867.517761230469	302.1012268066407	1559.4541015625	-863.0510253906252	394.2269287109376	1561.8447265625	-778.7491455078127	-290.8904418945313	1605.245849609375	-547.6752319335939	-127.9716567993164	1519.489990234375	-449.9772033691407	-106.2515563964844	1557.958129882813	-474.6438903808595	-59.02267456054689	1528.816650390625	-455.2420959472657	8.409924507141115	1520.939819335938	-468.2134399414064	12.37525653839112	1461.788818359375	-519.4522705078126	268.9931945800782	1554.894775390625	-575.5531005859376	275.5180969238282	1566.133178710938	-496.1865539550782	361.9192504882813	1586.717895507813	-569.4620971679689	-246.7386474609376	1089.968139648438	-845.7197265625002	-240.2543640136719	1074.895874023438	-602.8591308593751	-433.3868408203126	1173.998657226563	-703.4593505859376	-440.268280029297	1144.514404296875	-733.7102661132814	-436.6172485351564	1139.786865234375	-675.7568359375001	-292.1470642089844	818.017028808594	-942.9779052734377	-261.3591613769532	738.5969238281251	-946.0698242187502	-216.813217163086	736.0941772460939	-923.9118652343752	-289.0494689941407	685.7354736328126	-951.651550292969	-309.0959472656251	606.9660644531251	-948.0798339843752	-290.4217529296876	569.6269531250001	-821.034118652344	-415.3287963867189	522.2080078125001	-922.277282714844	-455.2514038085939	586.6680908203126	-957.8609619140627	-458.2819824218751	544.1833496093751	-951.884948730469	-537.8795776367189	527.6638183593751	-926.6226196289065	-729.7172851562501	587.3108520507814	-909.7607421875002	-720.1605224609376	519.6813964843751	-839.6885986328127	-719.9683837890626	619.5086059570314	-829.8438720703127	-851.1008300781252	448.2043457031251	-885.560974121094	-853.4482421875002	528.6211547851564	-956.045837402344	-355.0937194824219	866.0105590820315	-550.5941162109376	-320.8105773925782	809.6163330078127	-553.3308715820314	-287.7819824218751	808.426208496094	-554.2388305664064	-350.8783264160157	734.0664062500001	-577.0170288085939	-348.4737854003907	553.5870361328126	-609.8038940429689	-314.8673400878907	552.9100341796876	-743.4167480468751	-300.7933044433594	356.2574157714844	-714.1842041015626	-340.0997924804688	272.5623474121094	-657.3947753906251	-304.0466003417969	268.8633117675782	-688.8774414062501	-313.3009643554688	228.7835998535157	-729.1537475585939	-375.3219909667969	118.112777709961	-698.0744018554689	-343.6218566894532	145.9262237548828	-783.2715454101565	-440.1856384277345	102.5480194091797	-763.3469238281251	-228.8099060058594	61.59128952026369	-775.0979003906252	-225.5558471679688	57.26808547973634	-722.7589111328126	-274.9325256347657	26.18894577026368	-672.7248535156251	-851.979675292969	462.7910156250001	-931.659851074219	
